# xmcd
#
# Track frame offsets: 
#        150
#        12190
#        21520
#        34232
#        44840
#        55457
#        74692
#        88420
#        102837
#        112767
#        124240
#        135110
#        141827
#        154747
#        170265
#        179725
#        191692
#        202450
#        212397
#        230230
#
# Disc length: 3238 seconds
#
# Revision: 7
# Processed by: cddbd v1.5.2PL0 Copyright (c) Steve Scherf et al.
# Submitted via: ExactAudioCopy v1.1
#
DISCID=340ca414
DTITLE=Eric Clapton and Friends - Strictly The Blues
DYEAR=2000
DGENRE=Blues
TTITLE0=Eric Clapton with The Yardbirds - Got To Hurry (Eric Clapton w
TTITLE0=ith The Yardbirds)
TTITLE1=Eric Clapton with The Yardbirds - I Ain't Got You (Eric Clapto
TTITLE1=n with The Yardbirds)
TTITLE2=Eric Clapton with The Yardbirds - Good Morning Little Schoolgi
TTITLE2=rl (Eric Clapton with The Yardbirds)
TTITLE3=Eric Clapton with The Yardbirds - Let It Rock (Eric Clapton wi
TTITLE3=th The Yardbirds)
TTITLE4=Eric Clapton with The Yardbirds - A Certain Girl (Eric Clapton
TTITLE4=with The Yardbirds)
TTITLE5=Eric Clapton with The Yardbirds - Take It Easy Baby (Eric Clap
TTITLE5=ton with The Yardbirds)
TTITLE6=Eric Clapton with The Immediate All-Stars - Too Much Monkey Bu
TTITLE6=siness (Eric Clapton with The Immediate All-Stars)
TTITLE7=Eric Clapton with The Immediate All-Stars - Draggin' My Tail (
TTITLE7=Eric Clapton with The Immediate All-Stars)
TTITLE8=Eric Clapton with The Immediate All-Stars - Tribute To Elmore 
TTITLE8=(Eric Clapton with The Immediate All-Stars)
TTITLE9=Eric Clapton with The Immediate All-Stars - Snake Drive (Eric 
TTITLE9=Clapton with The Immediate All-Stars)
TTITLE10=Eric Clapton with The Immediate All-Stars - West Coast Idea (
TTITLE10=Eric Clapton with The Immediate All-Stars)
TTITLE11=Eric Clapton with The Immediate All-Stars - Choker (Eric Clap
TTITLE11=ton with The Immediate All-Stars)
TTITLE12=Eric Clapton with The Immediate All-Stars - Freight Loader (E
TTITLE12=ric Clapton with The Immediate All-Stars)
TTITLE13=Jimmy Page with The Immediate All-Stars - Down In The Boots (
TTITLE13=Jimmy Page with The Immediate All-Stars)
TTITLE14=Jimmy Page with The Immediate All-Stars - LA Breakdown (Jimmy
TTITLE14=Page with The Immediate All-Stars)
TTITLE15=Jeff Beck with The Immediate All-Stars - Steelin' (Jeff Beck 
TTITLE15=with The Immediate All-Stars)
TTITLE16=Jeff Beck with The Immediate All-Stars - Chuckles (Jeff Beck 
TTITLE16=with The Immediate All-Stars)
TTITLE17=Eric Clapton with John Mayall's Bluesbreakers - I'm Your Witc
TTITLE17=hdoctor (Eric Clapton with John Mayall's Bluesbreakers)
TTITLE18=Eric Clapton with John Mayall's Bluesbreakers - Telephone Blu
TTITLE18=es (Eric Clapton with John Mayall's Bluesbreakers)
TTITLE19=Eric Clapton with John Mayall's Bluesbreakers - On Top Of The
TTITLE19=World (Eric Clapton with John Mayall's Bluesbreakers)
EXTD=
EXTT0=
EXTT1=
EXTT2=
EXTT3=
EXTT4=
EXTT5=
EXTT6=
EXTT7=
EXTT8=
EXTT9=
EXTT10=
EXTT11=
EXTT12=
EXTT13=
EXTT14=
EXTT15=
EXTT16=
EXTT17=
EXTT18=
EXTT19=
PLAYORDER=
